<svg
   xmlns:svg="http://www.w3.org/2000/svg"
   xmlns="http://www.w3.org/2000/svg"
   xmlns:xlink="http://www.w3.org/1999/xlink"
   class="prism"
   version="1.1"
   height="440"
   width="440"
   viewBox="0 0 440 440">

  <style>
	svg.prism {
		stroke-width: 1px;
		font-family: 'Open Sans';
		text-align: center;
		text-anchor: middle;
		writing-mode: lr-tb;
	}

	svg.prism .faded {
		fill: #808080;
		font-size: 20px;
	}

	svg.prism .graph {
       fill: #ffffff;
	   fill-opacity: 0.4;
	   stroke :#ffffff;
	}

	svg.prism .smallfont {
		 font-size:13.75px;
		 fill:#1a1a1a;
	}

	svg.prism .whitelines {
		stroke: #ffffff;
	}
  </style>

  <defs>
    <marker
       style="overflow:visible"
       id="marker10417"
       refX="0.0"
       refY="0.0"
       orient="auto">
      <path
         transform="scale(0.8)"
         style="fill-rule:evenodd;stroke:#c60000;stroke-width:1pt;stroke-opacity:1;fill:#c60000;fill-opacity:1"
         d="M 5.77,0.0 L -2.88,5.0 L -2.88,-5.0 L 5.77,0.0 z "
         id="path10419" />
    </marker>
    <marker
       style="overflow:visible"
       id="marker10055"
       refX="0.0"
       refY="0.0"
       orient="auto">
      <path
         transform="scale(0.8)"
         style="fill-rule:evenodd;stroke:#0080f5;stroke-width:1pt;stroke-opacity:1;fill:#0080f5;fill-opacity:1"
         d="M 5.77,0.0 L -2.88,5.0 L -2.88,-5.0 L 5.77,0.0 z "
         id="path10057" />
    </marker>
    <marker
       orient="auto"
       refY="0.0"
       refX="0.0"
       id="marker9989"
       style="overflow:visible">
      <path
         id="path9991"
         d="M 5.77,0.0 L -2.88,5.0 L -2.88,-5.0 L 5.77,0.0 z "
         style="fill-rule:evenodd;stroke:#008200;stroke-width:1pt;stroke-opacity:1;fill:#008200;fill-opacity:1"
         transform="scale(0.8)" />
    </marker>
    <marker
       style="overflow:visible"
       id="TriangleOutL"
       refX="0.0"
       refY="0.0"
       orient="auto">
      <path
         transform="scale(0.8)"
         style="fill-rule:evenodd;stroke:#d49c00;stroke-width:1pt;stroke-opacity:1;fill:#d49c00;fill-opacity:1"
         d="M 5.77,0.0 L -2.88,5.0 L -2.88,-5.0 L 5.77,0.0 z "
         id="path9749" />
    </marker>
    <linearGradient
       id="linearGradient9376">
      <stop
         id="stop9378"
         offset="0"
         style="stop-color:#ffffff;stop-opacity:1" />
      <stop
         id="stop9380"
         offset="1"
         style="stop-color:#ffffff;stop-opacity:0" />
    </linearGradient>
    <radialGradient
       gradientTransform="matrix(-1.2910722e-8,-1.0000004,1,-4.0908338e-6,-442.36217,1112.3658)"
       gradientUnits="userSpaceOnUse"
       r="170"
       fy="842.36218"
       fx="310.00006"
       cy="842.36218"
       cx="310.00006"
       id="radialGradient9382"
       xlink:href="#linearGradient9376" />
  </defs>
  <g
     transform="translate(-180,-582.36216)">
	<!-- Pie pices and gradient circle -->
    <path
       d="m 230,802.36216 a 170,170 0 0 0 170,170 l 0,-170 -170,0 z"
       style="fill:#c60000" />
    <path
       d="m 400,632.36216 a 170,170 0 0 0 -170,170 l 170,0 0,-170 z"
       style="fill:#d49c00" />
    <path
       d="m 400,632.36216 0,170 170,0 a 170,170 0 0 0 -170,-170 z"
       style="fill:#008200" />
    <path
       d="m 400,802.36216 0,170 a 170,170 0 0 0 170,-170 l -170,0 z"
       style="fill:#0080f5" />

    <circle
       r="170"
       cy="802.36218"
       cx="400"
       style="fill:url(#radialGradient9382)" />

    <!-- White lines -->
    <g class="whitelines">
      <path
         d="M 334.94381,645.30264 465.05619,959.4217" />
      <path
         d="M 242.94047,737.30598 557.05953,867.41836" />
      <path
         d="M 242.94047,867.41836 557.05953,737.30598" />
      <path
         d="M 334.94381,959.4217 465.05619,645.30264" />
    </g>


	<!-- Surrounding font -->
    <g
       transform="translate(0,-10)"
	   class="smallfont">
      <text
         x="58.674282"
         y="729.59821"
         transform="matrix(0.92387953,-0.38268343,0.38268343,0.92387953,0,0)">Evaluating</text>
      <text
         transform="matrix(0.38268343,-0.92387953,0.92387953,0.38268343,0,0)"
         y="506.42938"
         x="-597.45135">Finishing</text>
      <text
         x="902.21143"
         y="124.52232"
         transform="matrix(0.38268343,0.92387953,-0.92387953,0.38268343,0,0)">Delivering</text>
      <text
         transform="matrix(0.92387953,0.38268343,-0.38268343,0.92387953,0,0)"
         y="781.06342"
         x="679.06146">Focusing</text>
      <text
         x="58.05022"
         y="1086.6421"
         transform="matrix(0.92387953,-0.38268343,0.38268343,0.92387953,0,0)">Co-ordinating</text>
      <text
         transform="matrix(0.38268343,-0.92387953,0.92387953,0.38268343,0,0)"
         y="864.40381"
         x="-597.48694">Supporting</text>
      <text
         x="903.59821"
         y="-232.67424"
         transform="matrix(0.38268343,0.92387953,-0.92387953,0.38268343,0,0)">Initiating</text>
      <text
         transform="matrix(0.92387953,0.38268343,-0.38268343,0.92387953,0,0)"
         y="423.45145"
         x="680.42944">Innovating</text>
    </g>

	<g class="faded">
		<text
		   y="602.93439"
		   x="401.36282">DECIDING</text>
		<text
		   x="401.36282"
		   y="1018">PROCESSING</text>
		<text
		   transform="matrix(0,1,-1,0,0,0)"
		   x="802.93439"
		   y="-601.36285">IDEALISTIC</text>
		<text
		   transform="matrix(0,-1,1,0,0,0)"
		   y="201.36284"
		   x="-802.93439">REALISTIC</text>
	 </g>

	<!-- Arrows -->
	<!--
    <path
       d="m 270,672.36216 -20,-20"
       style="fill:#d49c00;stroke:#d49c00;marker-end:url(#TriangleOutL)" />
    <path
       style="fill:#008200;stroke:#008200;marker-end:url(#marker9989)"
       d="m 530,672.36216 20,-20" />
    <path
       d="m 530,932.36216 20,20"
       style="fill:#0080f5;stroke:#0080f5;marker-end:url(#marker10055)" />
    <path
       d="m 270,932.36216 -20,20"
       style="fill:#c60000;stroke:#c60000;;marker-end:url(#marker10417)" />
   -->
  </g>
</svg>
